<svg viewBox="0 0 1050 350.46" xmlns="http://www.w3.org/2000/svg" xmlns:xlink="http://www.w3.org/1999/xlink" id="Ebene_1" overflow="hidden"><defs></defs><g><path d="M0 0.23 0 350.23 175 350.23 350 175.23 350 0.23 0 0.23Z" fill="#F84E2B"/><path d="M875 0.23 700 175.23 700 0.23 525 0.23 350 175.23 350 350.23 700 350.23 1050 350.23 1050 0.23 875 0.23Z" fill="#F84E2B"/></g><g><path d="M32.44 67.33 25 67.33 25 25.23 41.62 25.23C42 25.23 42.52 25.24 43.16 25.27 43.81 25.3 44.39 25.36 44.9 25.46 47.25 25.85 49.18 26.68 50.68 27.94 52.18 29.21 53.29 30.8 54 32.72 54.71 34.64 55.07 36.78 55.07 39.14 55.07 41.5 54.71 43.64 53.99 45.56 53.27 47.48 52.16 49.07 50.65 50.34 49.15 51.61 47.23 52.44 44.89 52.82 44.38 52.9 43.8 52.96 43.14 53 42.48 53.04 41.97 53.06 41.61 53.06L32.42 53.06 32.42 67.33ZM32.44 32.66 32.44 45.64 41.3 45.64C41.68 45.64 42.1 45.62 42.56 45.58 43.02 45.54 43.43 45.46 43.82 45.35 44.82 45.06 45.6 44.57 46.14 43.87 46.69 43.18 47.06 42.41 47.27 41.56 47.48 40.71 47.58 39.91 47.58 39.15 47.58 38.39 47.47 37.59 47.27 36.74 47.06 35.89 46.68 35.12 46.14 34.43 45.59 33.74 44.82 33.25 43.82 32.95 43.44 32.83 43.02 32.76 42.56 32.72 42.1 32.68 41.69 32.66 41.3 32.66L32.44 32.66Z" fill="#FFFFFF"/><path d="M87.61 67.33 61.91 67.33 61.91 25.23 87.61 25.23 87.61 32.66 69.35 32.66 69.35 41.66 84.33 41.66 84.33 49.09 69.35 49.09 69.35 59.91 87.61 59.91 87.61 67.34Z" fill="#FFFFFF"/><path d="M100.46 67.33 92.8 67.33 104.83 25.23 115.93 25.23 127.96 67.33 120.3 67.33 109.58 30.2 111 30.2 100.45 67.33ZM120.81 58.56 100.03 58.56 100.03 51.13 120.81 51.13 120.81 58.56Z" fill="#FFFFFF"/><path d="M141.7 67.33 134.26 67.33 134.26 25.23 141.7 25.23 141.7 44.64 156.68 25.23 165.76 25.23 149.3 45.99 166.8 67.33 157.39 67.33 141.7 48.15 141.7 67.33Z" fill="#FFFFFF"/><path d="M31.94 124.66 25 124.66 25 82.56 31.67 82.56 44.68 110.51 57.69 82.56 64.36 82.56 64.36 124.66 57.42 124.66 57.42 99.52 45.99 124.66 43.37 124.66 31.94 99.52 31.94 124.66Z" fill="#FFFFFF"/><path d="M90.29 125.53C86.35 125.53 82.96 124.61 80.11 122.78 77.26 120.95 75.06 118.38 73.52 115.09 71.98 111.8 71.21 107.97 71.21 103.6 71.21 99.23 71.98 95.4 73.52 92.11 75.06 88.82 77.26 86.25 80.11 84.42 82.96 82.59 86.36 81.67 90.29 81.67 94.22 81.67 97.62 82.59 100.48 84.42 103.33 86.25 105.53 88.82 107.07 92.11 108.61 95.4 109.38 99.23 109.38 103.6 109.38 107.97 108.61 111.8 107.07 115.09 105.53 118.38 103.33 120.95 100.48 122.78 97.63 124.61 94.23 125.53 90.29 125.53ZM90.29 118.05C92.79 118.09 94.87 117.51 96.52 116.33 98.18 115.14 99.42 113.46 100.25 111.27 101.08 109.09 101.49 106.53 101.49 103.61 101.49 100.69 101.08 98.15 100.25 96.01 99.42 93.87 98.18 92.2 96.52 91.01 94.86 89.82 92.78 89.21 90.29 89.17 87.79 89.13 85.71 89.71 84.06 90.89 82.4 92.08 81.16 93.77 80.33 95.95 79.5 98.13 79.09 100.69 79.09 103.61 79.09 106.53 79.5 109.07 80.33 111.21 81.16 113.35 82.4 115.02 84.06 116.21 85.72 117.4 87.8 118.01 90.29 118.05Z" fill="#FFFFFF"/><path d="M133.66 124.66 116.22 124.66 116.22 82.56 131.97 82.56C134.78 82.56 137.05 83.16 138.78 84.36 140.51 85.56 141.78 87.06 142.58 88.88 143.38 90.69 143.78 92.52 143.78 94.38 143.78 96.74 143.28 98.7 142.29 100.26 141.3 101.82 139.93 102.86 138.2 103.39L138.2 101.93C140.66 102.48 142.51 103.69 143.74 105.58 144.97 107.47 145.59 109.59 145.59 111.92 145.59 114.43 145.16 116.65 144.29 118.56 143.42 120.47 142.11 121.97 140.34 123.05 138.57 124.13 136.35 124.67 133.67 124.67ZM123.76 89.99 123.76 98.99 131.85 98.99C132.69 98.99 133.44 98.83 134.09 98.52 134.75 98.21 135.27 97.73 135.65 97.07 136.03 96.42 136.22 95.57 136.22 94.54 136.22 93.25 135.85 92.17 135.1 91.3 134.35 90.42 133.27 89.98 131.85 89.98L123.76 89.98ZM123.76 106.42 123.76 117.18 132.89 117.18C133.89 117.18 134.79 116.95 135.57 116.49 136.35 116.03 136.97 115.39 137.42 114.56 137.87 113.73 138.09 112.75 138.09 111.62 138.09 110.63 137.9 109.74 137.52 108.96 137.14 108.18 136.56 107.56 135.78 107.1 135.01 106.64 134.04 106.41 132.9 106.41L123.77 106.41Z" fill="#FFFFFF"/><path d="M160.4 124.66 152.96 124.66 152.96 82.56 160.4 82.56 160.4 124.66Z" fill="#FFFFFF"/><path d="M194.9 124.66 170.51 124.66 170.51 82.56 177.95 82.56 177.95 117.23 194.9 117.23 194.9 124.66Z" fill="#FFFFFF"/><path d="M208.9 124.66 201.46 124.66 201.46 82.56 208.9 82.56 208.9 124.66Z" fill="#FFFFFF"/><path d="M235.04 124.66 227.6 124.66 227.6 89.99 215.19 89.99 215.19 82.56 247.45 82.56 247.45 89.99 235.04 89.99 235.04 124.66Z" fill="#FFFFFF"/><path d="M272.01 124.66 264.46 124.66 264.46 107.53 251.01 82.56 259.7 82.56 268.23 98.4 276.76 82.56 285.45 82.56 272 107.53 272 124.66Z" fill="#FFFFFF"/></g></svg>